<?xml version="1.0"?>
<svg xmlns="http://www.w3.org/2000/svg" viewBox="0 0 64 64" width="512" height="512"><g id="money-coin-card-2" data-name="money-coin-card"><path d="M15,6a9,9,0,1,0,9,9A9.01,9.01,0,0,0,15,6Zm0,16a7,7,0,1,1,7-7A7.008,7.008,0,0,1,15,22Z"/><path d="M17,13h2a3,3,0,0,0-3-3V9H14v1a3,3,0,0,0,0,6v2a1,1,0,0,1-1-1H11a3,3,0,0,0,3,3v1h2V20a3,3,0,0,0,0-6V12A1,1,0,0,1,17,13Zm0,4a1,1,0,0,1-1,1V16A1,1,0,0,1,17,17Zm-3-3a1,1,0,0,1,0-2Z"/><path d="M59,25H55V22.679C60.985,22,61,20.609,61,20V15c0-.567-.014-2.2-7.138-2.8C56.028,11.7,57,11.018,57,10V5c0-2.708-8.392-3-12-3C34.169,2,33,4.1,33,5V7.618c-2.78.511-4,1.238-4,2.382v5c0,.527.015,1.98,5.74,2.657C31,18.389,31,19.479,31,20v5H21.619A12,12,0,1,0,8.381,25H5a3,3,0,0,0-3,3V59a3,3,0,0,0,3,3H59a3,3,0,0,0,3-3V28A3,3,0,0,0,59,25Zm-5.093-4.216C52.4,20.925,50.7,21,49,21c-.96,0-1.941-.026-2.95-.079-4.291-.213-6.474-.841-7.05-1.186V17.947c.67.023,1.342.053,2,.053,1.376,0,2.721-.047,4-.139,1.28.092,2.625.139,4,.139,2.5,0,7.289-.142,10-1.128v2.86C58.575,19.982,57.156,20.483,53.907,20.784Zm-1.193-4.9A1.292,1.292,0,0,0,53,15v-.857a23.731,23.731,0,0,1,5.381.86A25.143,25.143,0,0,1,52.714,15.879Zm-.864-5.328A47.418,47.418,0,0,1,45,11c-.649,0-1.288-.01-1.967-.029-4.877-.162-7.407-.862-8.033-1.234V6.872C37.711,7.858,42.5,8,45,8c5.354,0,8.342-.513,10-1.141v2.87A9.808,9.808,0,0,1,51.85,10.551ZM45,4a33.628,33.628,0,0,1,9.4,1A33.628,33.628,0,0,1,45,6a33.628,33.628,0,0,1-9.4-1A33.628,33.628,0,0,1,45,4ZM33,9.654V10a1.326,1.326,0,0,0,.057.366,12.715,12.715,0,0,1-1.431-.36A11.819,11.819,0,0,1,33,9.654Zm-2,2.218C33.711,12.858,38.5,13,41,13c.69,0,1.37-.01,2.06-.03h0c.631.02,1.28.03,1.94.03a52.251,52.251,0,0,0,6-.324v2.055c-.473.274-2.175.856-6.072,1.131a55.181,55.181,0,0,1-6.878.059c-4.291-.213-6.474-.841-7.05-1.186Zm6,7.462V20a1.3,1.3,0,0,0,.165.69A19.184,19.184,0,0,1,33.622,20,17.818,17.818,0,0,1,37,19.334Zm-4,5.4V21.872C35.711,22.858,40.5,23,43,23c1,0,2.031-.027,3.03-.08h0c.993.052,1.992.08,2.97.08,1.391,0,2.718-.06,4-.15v1.879a3.548,3.548,0,0,1-.65.271H33.65A3.548,3.548,0,0,1,33,24.729ZM5,15A10,10,0,1,1,15,25,10.011,10.011,0,0,1,5,15ZM5,27H59a1,1,0,0,1,1,1v5H4V28A1,1,0,0,1,5,27Zm55,8v4H4V35ZM59,60H5a1,1,0,0,1-1-1V41H60V59A1,1,0,0,1,59,60Z"/><path d="M52,46a5.965,5.965,0,0,0-3.5,1.136,6,6,0,1,0,0,9.728A6,6,0,1,0,52,46Zm-4,6a3.943,3.943,0,0,1,.5-1.9,3.845,3.845,0,0,1,0,3.792A3.943,3.943,0,0,1,48,52Zm-7,0a4,4,0,0,1,4-4,3.954,3.954,0,0,1,2.067.593,5.973,5.973,0,0,0,0,6.814A3.954,3.954,0,0,1,45,56,4,4,0,0,1,41,52Zm11,4a3.954,3.954,0,0,1-2.067-.593,5.973,5.973,0,0,0,0-6.814A3.954,3.954,0,0,1,52,48a4,4,0,0,1,0,8Z"/><rect x="6" y="50" width="6" height="2"/><rect x="6" y="54" width="10" height="2"/></g></svg>
