<?xml version="1.0"?>
<svg xmlns="http://www.w3.org/2000/svg" viewBox="0 0 64 64" width="512" height="512"><g id="growth-money-4" data-name="growth-money"><path d="M51,9h2a3,3,0,0,0-3-3V5H48V6a3,3,0,0,0,0,6v2a1,1,0,0,1-1-1H45a3,3,0,0,0,3,3v1h2V16a3,3,0,0,0,0-6V8A1,1,0,0,1,51,9Zm0,4a1,1,0,0,1-1,1V12A1,1,0,0,1,51,13Zm-3-3a1,1,0,0,1,0-2Z"/><path d="M40,40a8,8,0,1,0,8,8A8.009,8.009,0,0,0,40,40Zm0,14a6,6,0,1,1,6-6A6.006,6.006,0,0,1,40,54Z"/><path d="M58.33,42.54a7.947,7.947,0,0,1-4.87-4.87,1,1,0,0,0-.94-.67H27.48a1,1,0,0,0-.94.67,7.947,7.947,0,0,1-4.87,4.87,1,1,0,0,0-.67.94v9.04a1,1,0,0,0,.67.94,7.947,7.947,0,0,1,4.87,4.87,1,1,0,0,0,.94.67H52.52a1,1,0,0,0,.94-.67,7.947,7.947,0,0,1,4.87-4.87,1,1,0,0,0,.67-.94V43.48A1,1,0,0,0,58.33,42.54ZM57,51.84A9.859,9.859,0,0,0,51.84,57H28.16A9.859,9.859,0,0,0,23,51.84V44.16A9.859,9.859,0,0,0,28.16,39H51.84A9.859,9.859,0,0,0,57,44.16Z"/><path d="M61,34H57V32h1a1,1,0,0,0,1-1V27a1,1,0,0,0-1-1H57V24h1a1,1,0,0,0,1-1V19a1,1,0,0,0-1-1H54.64a9,9,0,1,0-11.28,0H42a1,1,0,0,0-1,1v3H40a1,1,0,0,0-1,1v4a1,1,0,0,0,1,1h1v2H40a1,1,0,0,0-1,1v3H22V29h7a1,1,0,0,0,.76-1.65l-13-15a1.04,1.04,0,0,0-1.52,0l-13,15A1,1,0,0,0,3,29h7V60H2v2h9a1,1,0,0,0,1-1V28a1,1,0,0,0-1-1H5.19L16,14.53,26.81,27H21a1,1,0,0,0-1,1v6H19a1,1,0,0,0-1,1V61a1,1,0,0,0,1,1H61a1,1,0,0,0,1-1V35A1,1,0,0,0,61,34Zm-4-4H43V28H57ZM42,11a7,7,0,1,1,7,7A7.008,7.008,0,0,1,42,11Zm1,9H57v2H43Zm-2,4H55v2H41Zm0,8H55v2H41ZM60,60H20V36H60Z"/></g></svg>
