<svg height="485pt" viewBox="0 -44 485.6572 485" width="485pt" xmlns="http://www.w3.org/2000/svg"><path d="m77.65625 264.328125v16c-2.152344 0-4.210938-.863281-5.71875-2.402344-1.503906-1.535156-2.328125-3.613281-2.28125-5.765625l-16 .167969c0 13.253906 10.746094 24 24 24v8h16v-8c13.253906 0 24-10.746094 24-24s-10.746094-24-24-24v-16c2.152344 0 4.210938.867187 5.71875 2.402344 1.503906 1.539062 2.328125 3.617187 2.28125 5.765625l16-.167969c0-13.253906-10.746094-24-24-24v-8h-16v8c-13.253906 0-24 10.746094-24 24s10.746094 24 24 24zm24 8c0 4.417969-3.582031 8-8 8v-16c4.417969 0 8 3.582031 8 8zm-24-40v16c-4.417969 0-8-3.582031-8-8s3.582031-8 8-8zm0 0"/><path d="m484.3125 363.886719-16-24-13.3125 8.882812 7.703125 11.558594h-25.046875v-240c0-4.417969-3.582031-8-8-8h-48c-4.417969 0-8 3.582031-8 8v240h-16v-112c0-4.417969-3.582031-8-8-8h-48c-4.417969 0-8 3.582031-8 8v112h-16v-160c0-4.417969-3.582031-8-8-8h-48c-4.417969 0-8 3.582031-8 8v160h-16v-112c0-4.417969-3.582031-8-8-8h-48c-4.417969 0-8 3.582031-8 8v112h-16v-32c0-4.417969-3.582031-8-8-8h-48c-4.417969 0-8 3.582031-8 8v32h-16v-144h8v-16h-8v-132.6875l10.34375 10.34375 11.3125-11.3125-24-24c-3.125-3.121094-8.1875-3.121094-11.3125 0l-24 24 11.3125 11.3125 10.34375-10.34375v300.6875c0 4.417969 3.582031 8 8 8h433.046875l-7.703125 11.558594 13.3125 8.882812 16-24c1.792969-2.6875 1.792969-6.191406 0-8.882812zm-414.65625-3.558594v-24h32v24zm80 0v-104h32v104zm80 0v-152h32v152zm80 0v-104h32v104zm80 0v-232h32v232zm0 0"/><path d="m149.65625 192.160156-16 .167969c0 13.253906 10.746094 24 24 24v8h16v-8c13.253906 0 24-10.746094 24-24s-10.746094-24-24-24v-16c2.152344 0 4.210938.867187 5.71875 2.402344 1.503906 1.539062 2.328125 3.617187 2.28125 5.765625l16-.167969c0-13.253906-10.746094-24-24-24v-8h-16v8c-13.253906 0-24 10.746094-24 24s10.746094 24 24 24v16c-2.152344 0-4.210938-.863281-5.71875-2.402344-1.503906-1.535156-2.328125-3.613281-2.28125-5.765625zm0-31.832031c0-4.417969 3.582031-8 8-8v16c-4.417969 0-8-3.582031-8-8zm24 24c4.417969 0 8 3.582031 8 8s-3.582031 8-8 8zm0 0"/><path d="m229.65625 144.160156-16 .167969c0 13.253906 10.746094 24 24 24v8h16v-8c13.253906 0 24-10.746094 24-24s-10.746094-24-24-24v-16c2.152344 0 4.210938.867187 5.71875 2.402344 1.503906 1.539062 2.328125 3.617187 2.28125 5.765625l16-.167969c0-13.253906-10.746094-24-24-24v-8h-16v8c-13.253906 0-24 10.746094-24 24s10.746094 24 24 24v16c-2.152344 0-4.210938-.863281-5.71875-2.402344-1.503906-1.535156-2.328125-3.613281-2.28125-5.765625zm0-31.832031c0-4.417969 3.582031-8 8-8v16c-4.417969 0-8-3.582031-8-8zm24 24c4.417969 0 8 3.582031 8 8s-3.582031 8-8 8zm0 0"/><path d="m309.65625 192.160156-16 .167969c0 13.253906 10.746094 24 24 24v8h16v-8c13.253906 0 24-10.746094 24-24s-10.746094-24-24-24v-16c2.152344 0 4.210938.867187 5.71875 2.402344 1.503906 1.539062 2.328125 3.617187 2.28125 5.765625l16-.167969c0-13.253906-10.746094-24-24-24v-8h-16v8c-13.253906 0-24 10.746094-24 24s10.746094 24 24 24v16c-2.152344 0-4.210938-.863281-5.71875-2.402344-1.503906-1.535156-2.328125-3.613281-2.28125-5.765625zm0-31.832031c0-4.417969 3.582031-8 8-8v16c-4.417969 0-8-3.582031-8-8zm24 24c4.417969 0 8 3.582031 8 8s-3.582031 8-8 8zm0 0"/><path d="m389.65625 64.160156-16 .167969c0 13.253906 10.746094 24 24 24v8h16v-8c13.253906 0 24-10.746094 24-24s-10.746094-24-24-24v-16c2.152344 0 4.210938.867187 5.71875 2.402344 1.503906 1.539062 2.328125 3.617187 2.28125 5.765625l16-.167969c0-13.253906-10.746094-24-24-24v-8h-16v8c-13.253906 0-24 10.746094-24 24s10.746094 24 24 24v16c-2.152344 0-4.210938-.863281-5.71875-2.402344-1.503906-1.535156-2.328125-3.613281-2.28125-5.765625zm0-31.832031c0-4.417969 3.582031-8 8-8v16c-4.417969 0-8-3.582031-8-8zm24 24c4.417969 0 8 3.582031 8 8s-3.582031 8-8 8zm0 0"/></svg>