<svg id="_x33_0" enable-background="new 0 0 64 64" height="512" viewBox="0 0 64 64" width="512" xmlns="http://www.w3.org/2000/svg"><g><path d="m33 27.184v-2.184h-2v2h-2v3c0 1.654 1.346 3 3 3 .552 0 1 .448 1 1v1h-1c-.552 0-1-.448-1-1v-1h-2v1c0 1.302.839 2.402 2 2.816v2.184h2v-2h2v-3c0-1.654-1.346-3-3-3-.552 0-1-.448-1-1v-1h1c.552 0 1 .448 1 1v1h2v-1c0-1.302-.839-2.402-2-2.816z"/><path d="m39 5h2v2h-2z"/><path d="m43 5h2v2h-2z"/><path d="m35 5h2v2h-2z"/><path d="m23 57h2v2h-2z"/><path d="m27 57h2v2h-2z"/><path d="m19 57h2v2h-2z"/><path d="m57.555 49h-7.141l-1.468-1.468c3.546-3.866 5.788-8.943 6.028-14.532h8.026v-2h-8.025c-.24-5.589-2.482-10.667-6.028-14.532l1.467-1.468h7.141l6.25-10h-4.805v-4.805l-10 6.25v7.141l-1.468 1.468c-3.865-3.546-8.943-5.788-14.532-6.029v-8.025h-2v8.025c-5.589.24-10.667 2.482-14.532 6.028l-1.468-1.467v-7.141l-10-6.25v4.805h-4.805l6.25 10h7.141l1.468 1.468c-3.546 3.865-5.788 8.943-6.029 14.532h-8.025v2h8.025c.24 5.589 2.482 10.667 6.028 14.532l-1.467 1.468h-7.141l-6.25 10h4.805v4.805l10-6.25v-7.141l1.468-1.468c3.866 3.546 8.943 5.788 14.532 6.028v8.026h2v-8.025c5.589-.24 10.667-2.482 14.532-6.028l1.468 1.467v7.141l10 6.25v-4.805h4.805zm-1.11-36h-4.031l2-2h3.281zm2.5-4h-2.531l2-2h1.781zm-1.945-3.414-2 2v-2.531l2-1.25zm-6 1.969 2-1.25v3.281l-2 2zm-43.445 43.445h4.031l-2 2h-3.281zm-2.5 4h2.531l-2 2h-1.781zm1.945 3.414 2-2v2.531l-2 1.25zm6-1.969-2 1.25v-3.281l2-2zm43.414-1.445h2.531l1.25 2h-1.781zm.031-4 1.25 2h-3.281l-2-2zm-8.929-4.899-6.102-6.101h3.586v-2h-3.792c.957-1.464 1.576-3.167 1.742-5h10c-.239 5.035-2.251 9.602-5.434 13.101zm-15.516-5.101c-4.963 0-9-4.037-9-9s4.037-9 9-9 9 4.037 9 9-4.037 9-9 9zm20.949-10h-10c-.166-1.833-.784-3.536-1.742-5h3.793v-2h-3.586l6.101-6.101c3.184 3.499 5.196 8.066 5.434 13.101zm-6.848-14.516-6.101 6.102v-3.586h-2v3.792c-1.464-.957-3.167-1.576-5-1.742v-10c5.035.239 9.602 2.251 13.101 5.434zm-15.101-5.433v10c-1.833.166-3.536.784-5 1.742v-3.793h-2v3.586l-6.101-6.101c3.499-3.184 8.066-5.196 13.101-5.434zm-18 .535-2-2v-3.281l2 1.25zm-4-6.531v2.531l-2-2v-1.781zm-3.414 1.945 2 2h-2.531l-1.25-2zm1.969 6-1.25-2h3.281l2 2zm8.929 4.899 6.102 6.101h-3.586v2h3.792c-.957 1.464-1.576 3.167-1.742 5h-10c.239-5.035 2.251-9.602 5.434-13.101zm-5.433 15.101h10c.166 1.833.784 3.536 1.742 5h-3.793v2h3.586l-6.101 6.101c-3.184-3.499-5.196-8.066-5.434-13.101zm6.848 14.516 6.101-6.102v3.586h2v-3.792c1.464.957 3.167 1.576 5 1.742v10c-5.035-.239-9.602-2.251-13.101-5.434zm15.101 5.433v-10c1.833-.166 3.536-.784 5-1.742v3.793h2v-3.586l6.101 6.101c-3.499 3.184-8.066 5.196-13.101 5.434zm18-.535 2 2v3.281l-2-1.25zm4 6.531v-2.531l2 2v1.781z"/></g></svg>