<?xml version="1.0" encoding="UTF-8" standalone="no"?>
<svg id="svg5532" xmlns:rdf="http://www.w3.org/1999/02/22-rdf-syntax-ns#" xmlns="http://www.w3.org/2000/svg" height="391.59mm" width="415.47mm" version="1.1" xmlns:cc="http://creativecommons.org/ns#" xmlns:dc="http://purl.org/dc/elements/1.1/" viewBox="0 0 1472.1248 1387.5108">
<g id="layer1" transform="translate(941.78 167.11)">
<g id="g7642">
<path id="rect4255" d="m-941.78-167.11v0.97461c0.2375-0.25 0.7245-0.73711 0.9745-0.97461zm728.97 6.5625c-239.7 150.64-479.29 301.46-719.31 451.56 21.238 1.4375 42.563 0.38789 63.838 0.52539 14.882 0.20573 29.763 0.18535 44.644 0.0763 0.075 7.9034 0.1255 15.807 0.21287 23.723 7.4875 0.05 14.975 0.0887 22.475 0.0762-0.125 9.9875-0.1 19.975 0.025 29.975-0.1375 9.9875-0.16375 19.976-0.025 29.988-7.5-0.025-15-0.0129-22.5 0.0371-0.075 7.475-0.075 14.925 0 22.412 5.8125 0.075 11.626 0.0871 17.451 0.16212 0.0375 12.438 0.0375 24.887 0.0625 37.35 5.8125 0.0625 11.625 0.0516 17.438 0.1015 0.0625 182.46 0.0487 364.94 0.0125 547.4-5.8125 0.05-11.624 0.027-17.424 0.10163-0.175 12.462-0.13738 24.937-0.0375 37.437-6.65-0.025-13.309-0.013-19.959 0.037-0.1375 10.8-0.16613 21.625-0.0412 32.463-7.5-0.037-14.987-0.039-22.475 0.023-0.15 16.649-0.0625 33.313-0.025 49.975-10.825-0.062-21.65-0.053-32.475 0.047-0.1125 12.888-0.13862 25.788-0.025 38.713 451.24 0 902.49 0.001 1353.7-0.012 0.0875-12.912 0.075-25.814 0-38.701-5.2125-0.069-10.428-0.1-15.639-0.1037-5.211 0-10.418 0.024-15.611 0.066 0.1375-16.662-0.0138-33.323-0.0138-49.973-5.6314-0.044-11.256-0.07-16.877-0.076-5.622-0.01-11.241 0.01-16.86 0.039 0.0875-10.838 0.0875-21.651 0-32.451-8.35-0.1125-16.713-0.1238-25.014-0.049 0.17501-12.488 0.0275-24.975-0.0125-37.437-6.6625-0.05-13.313-0.089-19.926-0.1015-0.0625-182.05-0.0625-364.1 0-546.15 6.625-0.0375 13.262-0.0758 19.938-0.11324 0.025-12.888-0.00025-25.762 0.0512-38.637 7.05-0.05 14.099-0.0879 21.199-0.0879 0.0625-7.4875 0.0512-14.963 0.0137-22.426-4.5936-0.0438-9.183-0.0684-13.766-0.0763-4.583-0.007-9.1595 0.002-13.734 0.0272 0.1125-10 0.0775-20.001-0.0225-29.988 0.125-9.9994 0.13688-19.999 0.0225-29.986 9.15 0.0375 18.313 0.0254 27.5-0.0371 0.075-7.9125 0.0238-15.812-0.0137-23.699-4.5234-0.0741-8.875-0.12437-13.334-0.17384 1.3425-0.001 2.685-0.00036 4.0275-0.002 4.5125 0.05 8.9112 0.10075 13.486 0.17579 12.662 0.05 25.326-0.001 38.014-0.20118 15.312 0.21251 30.799 1.0887 46.074-0.67382-235.1-150.34-469.94-301.09-705.09-451.34zm703.69 1302.1c-6.041 0-12.078 0.013-18.11 0.043-451.24 0.013-902.49 0.013-1353.7 0.013-10-0.062-19.986-0.075-29.986 0.025-0.1375 14.562-0.0762 29.126-0.0137 43.713-4.5812-0.037-9.1609-0.053-13.742-0.047-4.5811 0.013-9.1629 0.033-13.744 0.082-0.1375 11.638-0.11375 23.275 0.0125 34.938 489.56 0.075 979.12 0.05 1468.7 0.014 0.1125-11.662 0.1025-23.324-0.0125-34.949-7.1125-0.062-14.188-0.087-21.238-0.037 0.175-14.588 0-29.163 0-43.713-6.0436-0.05-12.086-0.075-18.127-0.08z" fill="#a49064"/>
<path id="path6" d="m-212.8-160.55c-239.7 150.64-479.29 301.46-719.31 451.56 21.238 1.4375 42.563 0.38789 63.838 0.52539 218.31-141.92 436.91-283.44 655.42-425.05 220.21 140.76 439.42 283.26 659.06 424.98 15.312 0.21251 30.799 1.0887 46.074-0.67383-235.1-150.34-469.94-301.09-705.09-451.34zm603.33 452.04c-404.31 0.3125-808.61 0.12539-1212.9 0.0879l-1.2382 0.0113c0.075 7.9125 0.12537 15.825 0.21287 23.75 7.4875 0.05 14.975 0.0886 22.475 0.0761 392.49-0.05 784.99-0.0261 1177.5-0.0136 9.15 0.0375 18.312 0.0254 27.5-0.0371 0.075-7.9125 0.0238-15.812-0.0138-23.699-4.575-0.075-8.9739-0.12578-13.486-0.17578zm-0.2655 83.861c-4.583-0.008-9.1595 0.002-13.734 0.0274-392.49 0.0125-784.99 0.025-1177.5 0-7.5-0.025-15-0.0129-22.5 0.0371-0.075 7.475-0.075 14.925 0 22.412 5.8125 0.075 11.626 0.0871 17.451 0.16211 0.0375 12.438 0.0375 24.887 0.0625 37.35 5.8125 0.0625 11.625 0.0515 17.438 0.10151 0.0625 182.46 0.0488 364.94 0.0125 547.4-5.8125 0.05-11.624 0.0266-17.424 0.10163-0.175 12.462-0.139 24.937-0.0388 37.437 57.912 0.038 115.83 0.012 173.74 0 0.0625-12.462 0.0363-24.939-0.0512-37.389-6.6375-0.075-13.274-0.1363-19.898-0.1738-0.075-182.44-0.10125-364.89 0.0125-547.33 6.6125-0.0875 13.238-0.16134 19.863-0.23634 0.0375-12.438 0.1-24.864 0.125-37.289 14.962-0.225 29.936-0.2125 44.898 0 0.025 12.85 0.0625 25.713 0.0875 38.588 5.8 0.075 11.587 0.1 17.412 0.1875 0.0875 182.02 0.0638 364.05 0.0137 546.08-5.8 0.05-11.625 0.0484-17.412 0.1484-0.125 12.462-0.16325 24.927-0.0513 37.414 58.338 0.012 116.66 0.025 175 0 0.0625-12.475 0.0375-24.964-0.0375-37.414-7.0625-0.0625-14.125-0.12425-21.162-0.1367-0.075-182.45-0.10125-364.89 0.0125-547.34 6.6125-0.0875 13.238-0.17384 19.863-0.23634 0.0375-12.438 0.0863-24.875 0.11125-37.312 136.64-0.075 273.27-0.114 409.91 0.0235 0.0125 12.438 0.0625 24.888 0.0875 37.338 5.8125 0.0625 11.575 0.0883 17.412 0.17577 0.075 182.42 0.0875 364.85 0 547.28-4.6625 0.05-13.986 0.1609-18.648 0.2109-0.125 12.462-0.16325 24.927-0.05125 37.414 58.338 0.025 116.66 0.013 175 0 0.0625-12.462 0.0238-24.939-0.0512-37.389-6.65-0.075-13.286-0.1363-19.898-0.1738-0.075-182.44-0.10125-364.89 0.0125-547.33 6.6-0.0875 13.226-0.16134 19.863-0.23634 0.0375-12.438 0.0863-24.876 0.13676-37.301 12.862-0.2125 25.738-0.20078 38.625 0.0113 0.025 12.438 0.075 24.888 0.10001 37.338 5.8125 0.0625 11.562 0.0883 17.412 0.17578 0.075 182.42 0.0875 364.85 0 547.28-4.6625 0.05-13.986 0.1609-18.648 0.2109-0.125 12.462-0.16325 24.927-0.0513 37.414 58.325 0.013 116.65 0.038 174.97 0 0.175-12.488 0.0263-24.975-0.0125-37.438-6.6625-0.05-13.313-0.0891-19.926-0.10162-0.0625-182.05-0.0625-364.1 0-546.15 6.625-0.0375 13.262-0.0758 19.938-0.11325 0.025-12.888 0.00075-25.762 0.0513-38.637 7.05-0.05 14.099-0.0879 21.199-0.0879 0.0625-7.4875 0.0512-14.963 0.0137-22.426-4.5938-0.0437-9.1828-0.0684-13.766-0.0761zm-1110.6 59.97c6.0328-0.002 12.066 0.0281 18.104 0.10938 0.05 182.48 0.0375 364.95 0 547.44-12.075 0.0875-24.137 0.1383-36.199-0.0113-0.05-182.48-0.0375-364.96 0-547.44 6.0312-0.0562 12.063-0.0945 18.096-0.0976zm802.49 0c6.0344-0.002 12.072 0.0281 18.109 0.10938 0.0375 182.48 0.0375 364.95 0 547.44-12.087 0.0875-24.137 0.1383-36.199-0.0113-0.05-182.48-0.05-364.96 0-547.44 6.025-0.0562 12.056-0.0945 18.09-0.0976zm212.5 0c6.0344-0.002 12.072 0.0281 18.109 0.10938 0.0375 182.48 0.0375 364.95 0 547.44-12.088 0.0875-24.137 0.1383-36.199-0.0113-0.05-182.48-0.05-364.96 0-547.44 6.025-0.0562 12.056-0.0945 18.09-0.0976zm-795.62 0.004c5.8234 0 11.647 0.0312 17.478 0.0937 0.05 182.49 0.0375 364.96 0 547.45-11.65 0.1-23.299 0.1125-34.949 0-0.05-182.49-0.0375-364.96 0-547.45 5.825-0.0625 11.647-0.0937 17.471-0.0937zm-184.96 0.0685c5.375-0.025 10.788-0.0125 16.188 0 0.0375 182.5 0.0512 365-0.0125 547.5-5.4-0.05-10.788 0-16.188 0-0.0375-182.5-0.0512-365 0.0125-547.5zm133.75 0c5.375-0.025 10.788-0.0125 16.188 0 0.0375 182.5 0.0512 365-0.0125 547.5-5.4125-0.05-10.788 0-16.188 0-0.0375-182.5-0.0512-365 0.0125-547.5zm668.75 0c5.35-0.025 10.788-0.0125 16.188 0 0.0375 182.5 0.0513 365-0.0125 547.5-5.4375-0.05-10.788 0-16.188 0-0.0375-182.5-0.0513-365 0.0125-547.5zm212.5 0c5.3375-0.025 10.788-0.0125 16.188 0 0.0375 182.5 0.0512 365-0.0125 547.5-5.45-0.05-10.8 0-16.188 0-0.0375-182.5-0.0513-365 0.0125-547.5zm-1100 1.25c4.9875-0.0125 9.9617-0.0125 14.949 0 0.0375 182.08 0.05 364.16 0 546.25-4.9875-0.025-9.9743-0.025-14.949 0-0.0375-182.09-0.05-364.16 0-546.25zm305 0c4.975-0.0125 9.9618-0.0125 14.949 0 0.0375 182.08 0.05 364.16 0 546.25-5-0.025-9.9742-0.025-14.949 0-0.0375-182.09-0.05-364.16 0-546.25zm497.5 0c4.9625-0.0125 9.9492-0.0125 14.949 0 0.0375 182.08 0.05 364.16 0 546.25-5-0.025-9.9868-0.025-14.949 0-0.0375-182.09-0.05-364.16 0-546.25zm212.5 0c4.9625-0.0125 9.9368-0.0125 14.949 0 0.0375 182.08 0.05 364.16 0 546.25-5.0125-0.025-9.9868-0.025-14.949 0-0.0375-182.09-0.05-364.16 0-546.25zm-458.15 27.48c-56.459 0-112.92 0.0258-169.38 0.082-0.0125 7.0125-0.025 14.05-0.025 21.088 1.8875 0.0375 5.6386 0.11288 7.5136 0.15039 107.93-0.0875 215.85-0.075 323.77 0 1.875-0.05 5.6386-0.1375 7.5136-0.1875-0.025-7.0375-0.0375-14.05-0.025-21.062-56.456-0.0438-112.92-0.0703-169.38-0.0703zm638.72 588.72c-5.622-0.01-11.241 0.01-16.86 0.039-411.24 0.013-822.49 0.025-1233.7 0-7.5-0.037-14.987-0.039-22.475 0.023-0.15 16.65-0.0625 33.314-0.025 49.976 429.99 0.025 859.98 0.013 1290 0.013 0.1375-16.662-0.0137-33.325-0.0137-49.975-5.6313-0.044-11.255-0.07-16.877-0.076zm66.25 88.746c-6.0408 0-12.078 0.013-18.11 0.043-451.24 0.013-902.49 0.013-1353.7 0.013-10-0.062-19.986-0.075-29.986 0.025-0.1375 14.562-0.0762 29.125-0.0137 43.713 473.32 0.013 946.64 0.025 1420 0 0.175-14.588 0-29.163 0-43.713-6.0438-0.05-12.086-0.075-18.127-0.08z" fill="#5b481c"/>
<path id="path10" d="m-212.98-93.432c-201.85 128.16-404.13 255.77-605.24 385.01 404.31 0.0375 808.61 0.2246 1212.9-0.0879-201.94-129.17-404.88-256.98-607.66-384.92zm-587.94 438.82c-0.1375 9.9875-0.1633 19.976-0.025 29.988 392.49 0.025 784.99 0.0125 1177.5 0 0.1125-10 0.075-20.001-0.025-29.988zm191.21 52.41c-7.4844-0.001-14.968 0.0515-22.449 0.16407-0.025 12.425-0.088 24.852-0.125 37.289-6.625 0.075-13.251 0.14883-19.863 0.23633-0.1125 182.44-0.086 364.89-0.0125 547.33 6.625 0.037 13.261 0.099 19.898 0.1738 0.088 12.45 0.11325 24.926 0.051 37.389 15 0.025 30 0.013 45 0-0.1125-12.488-0.074-24.952 0.051-37.414 5.7875-0.1 11.612-0.098 17.412-0.1484 0.05-182.03 0.074-364.05-0.014-546.08-5.825-0.0875-11.612-0.1125-17.412-0.1875-0.025-12.875-0.063-25.738-0.088-38.588-7.4812-0.10625-14.965-0.1625-22.449-0.16407zm799.37 0c-6.4375-0.004-12.871 0.0461-19.303 0.15234-0.05 12.425-0.099 24.863-0.1367 37.301-6.6375 0.075-13.263 0.14883-19.863 0.23633-0.1125 182.44-0.086 364.89-0.0125 547.33 6.6125 0.037 13.248 0.099 19.898 0.1738 0.075 12.45 0.11325 24.926 0.051 37.389 12.488 0.025 24.988 0.013 37.5 0-0.1125-12.488-0.074-24.952 0.051-37.414 4.6625-0.05 13.986-0.1609 18.648-0.2109 0.088-182.43 0.075-364.85 0-547.28-5.85-0.0875-11.6-0.11325-17.412-0.17578-0.025-12.45-0.075-24.9-0.1-37.338-6.4437-0.10625-12.885-0.16095-19.322-0.16407zm-398.12 0.0722c-68.318 0.001-136.64 0.0309-204.96 0.0684-0.025 12.438-0.074 24.875-0.11125 37.312-6.625 0.0625-13.251 0.14882-19.863 0.23632-0.1125 182.45-0.086 364.89-0.0125 547.34 7.0375 0.013 14.1 0.074 21.162 0.1367 0.075 12.45 0.1 24.939 0.037 37.414 16.238 0.037 32.475 0.1 48.713-0.025 0.037-171.58 0.1258-343.16-0.037-514.74l-12.352-0.5c-0.037-6.5625-0.061-13.124-0.086-19.674-1.875-0.0375-5.6262-0.11288-7.5137-0.15039 0-7.0375 0.0112-14.075 0.023-21.088 112.91-0.1125 225.84-0.0997 338.75-0.0113-0.013 7.0125 0.0008 14.025 0.025 21.062-1.875 0.05-5.6386 0.1375-7.5136 0.1875-0.037 6.55-0.073 13.112-0.086 19.688-3.0875 0.1-9.275 0.29845-12.375 0.39845-0.1 171.61-0.064 343.21-0.014 514.83 19.988 0.1625 39.975 0.0004 59.963 0.025-0.1125-12.488-0.074-24.952 0.051-37.414 4.6625-0.05 13.986-0.16091 18.648-0.21091 0.088-182.43 0.075-364.85 0-547.28-5.8375-0.0875-11.6-0.11325-17.412-0.17577-0.025-12.45-0.075-24.9-0.088-37.338-68.318-0.0687-136.64-0.0934-204.95-0.0917zm665.61 704.95c-5.211 0-10.416 0.023-15.61 0.066-430 0-859.99 0.014-1290-0.013-10.825-0.062-21.65-0.053-32.475 0.048-0.1125 12.888-0.1383 25.788-0.025 38.713 451.24 0 902.49 0 1353.7-0.013 0.0875-12.912 0.075-25.814 0-38.701-5.2125-0.069-10.43-0.1-15.641-0.1037zm-1381.8 82.5c-4.5812 0.013-9.1629 0.034-13.744 0.084-0.1375 11.638-0.1133 23.275 0.012 34.938 489.56 0.075 979.12 0.049 1468.7 0.013 0.11249-11.662 0.10124-23.324-0.0125-34.949-7.1125-0.062-14.188-0.088-21.238-0.037-473.33 0.025-946.64 0.012-1420 0-4.5812-0.038-9.1609-0.053-13.742-0.048z" fill="#caaf7e"/>
<path id="path4233" d="m-214.09 512.88c-42.697-0.001-85.394 0.0125-128.09 0.0371-0.0375 169.15-0.0525 338.3 0.0125 507.44 85.388 0.062 170.79 0.05 256.19 0.012 0.0375-169.15 0.0525-338.3-0.0125-507.44-42.7-0.0312-85.397-0.0473-128.09-0.0488z" fill="#2c5928"/>
<path id="path60" d="m-214.09 512.88c-42.697-0.001-85.394 0.0125-128.09 0.0371-0.0375 169.15-0.0513 338.3 0.0125 507.44 85.388 0.062 170.79 0.049 256.19 0.011 0.0375-169.15 0.05125-338.3-0.0125-507.44-42.7-0.0312-85.397-0.0473-128.09-0.0489zm-59.369 28.734c15.409-0.005 30.818 0.009 46.225 0.0528 0.0375 37.9 0.0625 75.799 0 113.7-30.825 0.0375-61.637 0.075-92.449 0-0.05-37.9-0.0625-75.799 0-113.7 15.406-0.025 30.815-0.048 46.225-0.0528zm112.5 0c15.409-0.005 30.818 0.009 46.225 0.0528 0.0375 37.9 0.0625 75.799 0 113.7-30.825 0.0375-61.637 0.075-92.449 0-0.05-37.9-0.0625-75.799 0-113.7 15.406-0.025 30.815-0.048 46.225-0.0528zm-112.5 135c15.409-0.005 30.818 0.009 46.225 0.0528 0.0375 39.988 0.05 79.962 0 119.95-30.825 0.0375-61.637 0.075-92.449 0-0.05-39.988-0.0625-79.974 0-119.95 15.406-0.025 30.815-0.048 46.225-0.0528zm112.5 0c15.409-0.005 30.818 0.009 46.225 0.0528 0.0375 39.988 0.05 79.962 0 119.95-30.825 0.0375-61.637 0.075-92.449 0-0.05-39.988-0.0625-79.974 0-119.95 15.406-0.025 30.815-0.048 46.225-0.0528zm-112.5 132.51c15.409-0.006 30.818 0.003 46.225 0.0469 0.0375 63.738 0.05 127.46 0 191.2-30.825 0.037-61.637 0.075-92.449 0-0.0375-63.737-0.05-127.47 0-191.2 15.406-0.0187 30.815-0.0406 46.225-0.0469zm112.5 0c15.409-0.006 30.818 0.003 46.225 0.0469 0.0375 63.738 0.05 127.46 0 191.2-30.825 0.037-61.637 0.075-92.449 0-0.0375-63.737-0.05-127.47 0-191.2 15.406-0.0187 30.815-0.0406 46.225-0.0469z" fill="#51744d"/>
<path id="path66" d="m-273.45 547.86c-12.906 0.001-25.812 0.0226-38.719 0.0664-0.075 33.312-0.0612 66.625-0.0125 99.938 25.812 0.0625 51.625 0.0633 77.438-0.0112 0.075-33.312 0.0613-66.625 0.0125-99.938-12.906-0.0375-25.812-0.0563-38.719-0.0548zm112.5 0c-12.906 0.001-25.812 0.0226-38.719 0.0664-0.075 33.312-0.0613 66.625-0.0125 99.938 25.812 0.0625 51.625 0.0633 77.438-0.0112 0.075-33.312 0.0613-66.625 0.0125-99.938-12.906-0.0375-25.812-0.0563-38.719-0.0548zm-112.51 136.26c-12.909 0.001-25.818 0.0215-38.725 0.0528-0.075 34.975-0.0375 69.962 0 104.95 25.812 0.0625 51.624 0.05 77.449 0 0.075-34.988 0.0375-69.974 0-104.95-12.906-0.0375-25.815-0.0543-38.725-0.0528zm112.5 0c-12.908 0.001-25.814 0.0215-38.721 0.0528-0.075 34.975-0.0375 69.962 0 104.95 25.812 0.0625 51.624 0.05 77.449 0 0.075-34.988 0.0375-69.974 0-104.95-12.912-0.0375-25.821-0.0543-38.728-0.0528zm-112.5 136.25c-12.909 0.001-25.818 0.0215-38.725 0.0528-0.0625 55.813-0.0375 111.62 0 167.45 25.812 0.0625 51.624 0.05 77.449 0 0.0625-55.812 0.0375-111.64 0-167.45-12.906-0.0375-25.815-0.0543-38.725-0.0528zm111.88 0.003c-13.114 0.002-26.227 0.025-39.34 0.0625-0.075 56.225-0.0487 112.45-0.0125 168.69 26.225 0.0625 52.45 0.0507 78.688-0.0113 0.075-56.225 0.0487-112.46 0.0125-168.69-13.119-0.0375-26.234-0.0539-39.348-0.0507z" fill="#3f6b3b"/>
<path id="path7639" fill="#5b481c" d="m-139.43 5.0313v28.338q-11.833-6.3838-22.421-9.4979-10.588-3.2698-20.086-3.2698-23.044 0-32.075 12.145-9.0308 11.989-9.0308 44.998v33.476h60.88v22.266h-60.88v72.402h86.727v26.47h-154.61v-26.47h36.746v-72.402h-30.985v-22.266h30.985v-37.057q0-40.639 16.66-59.479 16.66-18.996 52.784-18.996 9.4979 0 21.176 2.4913 11.833 2.3356 24.134 6.851z"/>
</g>
</g>
</svg>
