<svg height="496pt" viewBox="0 0 496 496" width="496pt" xmlns="http://www.w3.org/2000/svg"><path d="m472 256v-25.824219c0-16.582031-10.433594-31.632812-25.960938-37.457031l-38.039062-14.261719v-14.128906h-16v17l-16 21.335937-16-21.335937v-17h-16v14.128906l-38.039062 14.269531c-15.527344 5.816407-25.960938 20.867188-25.960938 37.449219v25.824219h-16v-128h-104c-22.054688 0-40 17.945312-40 40 0 13.128906 6.449219 24.703125 16.246094 32-9.796875 7.296875-16.246094 18.871094-16.246094 32 0 9.039062 3.128906 17.296875 8.207031 24h-24.207031v-128h-80v128c-13.230469 0-24 10.769531-24 24v16c0 13.230469 10.769531 24 24 24v176h448v-176c13.230469 0 24-10.769531 24-24v-16c0-13.230469-10.769531-24-24-24zm-69.199219-62.398438 12.0625 4.527344-5.128906 30.757813-25.695313-10.277344zm-34.847656 25-25.695313 10.277344-5.128906-30.757812 12.070313-4.519532zm-71.953125 11.574219c0-9.953125 6.257812-18.976562 15.574219-22.472656l10.289062-3.855469 7.878907 47.273438 46.257812-18.503906 46.257812 18.496093 7.878907-47.273437 10.289062 3.855468c9.316407 3.503907 15.574219 12.527344 15.574219 22.480469v25.824219h-160zm-48 25.824219h-16v-48h16zm-48-64v-48h16v48zm16 16v48h-16v-48zm32-16h-16v-48h16zm-112-24c0-13.230469 10.769531-24 24-24h24v48h-24c-13.230469 0-24-10.769531-24-24zm0 64c0-13.230469 10.769531-24 24-24h24v48h-24c-13.230469 0-24-10.769531-24-24zm-48-8h-48v-16h48zm0-80v48h-48v-48zm-48 96h48v16h-48zm416 240h-416v-160h416zm24-184c0 4.40625-3.59375 8-8 8h-448c-4.40625 0-8-3.59375-8-8v-16c0-4.40625 3.59375-8 8-8h448c4.40625 0 8 3.59375 8 8zm0 0"/><path d="m152 224h16v16h-16zm0 0"/><g fill="#f0bc5e"><path d="m312 424h128v32h-128zm0 0"/><path d="m56 344h128v32h-128zm0 0"/><path d="m376 176c-48.519531 0-88-39.480469-88-88s39.480469-88 88-88 88 39.480469 88 88-39.480469 88-88 88zm0 0"/></g><path d="m376 80c-4.40625 0-8-3.59375-8-8s3.59375-8 8-8 8 3.59375 8 8h16c0-10.414062-6.710938-19.214844-16-22.527344v-17.472656h-16v17.472656c-9.289062 3.3125-16 12.113282-16 22.527344 0 13.230469 10.769531 24 24 24 4.40625 0 8 3.59375 8 8s-3.59375 8-8 8-8-3.59375-8-8h-16c0 10.414062 6.710938 19.214844 16 22.527344v17.472656h16v-17.472656c9.289062-3.3125 16-12.113282 16-22.527344 0-13.230469-10.769531-24-24-24zm0 0"/><path d="m312 448h128v16h-128zm0 0"/><path d="m280 416h160v16h-160zm0 0"/><path d="m56 336h128v16h-128zm0 0"/><path d="m56 368h160v16h-160zm0 0"/><path d="m56 160h16v16h-16zm0 0"/><path d="m152 160h16v16h-16zm0 0"/></svg>